:SAMPLES-PER-SECOND 30
:FULLY-SPECIFIED
:DEGREES
561
root  8.99228 40.8512 -1.16482 -136.946 -87.2202 134.939
RightUpLeg  -0.0389544 -7.98705 -3.6766
RightLeg  7.54119 -3.91175 3.55234
RightFoot  -5.41489 0.173146 -3.85319
RightToes  0.00048216 0.542163 -0.142577
Spine  5.06823 0.678849 1.80711
Spine1  -3.97577 1.06755 -1.51869
HEad  -1.97531 0.937641 -0.770614
LeftShoulder1  0.581201 -1.35251 -3.94424
LeftArm  -29.4532 13.2667 -2.09418
LeftForeArm  15.1279 -16.5302 -1.28979
LeftHand  -0.25398 0.0180481 5.50724
RightShoulder  0.434559 0.303197 3.41653
RightArm  -22.4911 -3.18452 -1.38203
RightForeArm  -18.37 6.07162 4.26283
RightHand  -2.7713 8.51494 -23.2646
LeftUpLeg  1.63289 2.59909 -0.948116
LeftLeg  3.0902 10.4693 -3.13996
LeftFoot  -4.12743 -0.0776037 1.59265
LeftToes  1.06244e-005 4.65856e-005 -8.18505e-006
562
root  8.96848 40.8448 -1.1853 -133.66 -87.5372 131.397
RightUpLeg  0.395961 -8.01909 -3.6059
RightLeg  7.3972 -4.2286 3.60404
RightFoot  -5.42472 0.175721 -3.90898
RightToes  0.00048216 0.542163 -0.142577
Spine  4.64287 0.66541 1.74139
Spine1  -3.88038 1.08402 -1.69208
HEad  -1.74106 0.597659 -0.358553
LeftShoulder1  0.57026 -1.4591 -3.40766
LeftArm  -27.7808 11.5149 -1.40187
LeftForeArm  13.8305 -15.773 -1.38111
LeftHand  -0.25398 0.0180481 5.50724
RightShoulder  0.391116 0.0684572 2.88535
RightArm  -22.6293 -2.62756 -1.57962
RightForeArm  -17.3974 6.38949 4.28602
RightHand  -2.86056 8.84773 -23.4476
LeftUpLeg  1.74482 2.70143 -0.83792
LeftLeg  3.48863 10.064 -2.96254
LeftFoot  -4.30448 -0.0787922 1.6196
LeftToes  1.06244e-005 4.65856e-005 -8.18505e-006
563
root  8.95184 40.8425 -1.20347 -130.551 -87.723 128.269
RightUpLeg  0.48697 -7.98636 -3.51636
RightLeg  7.3457 -4.49249 3.59077
RightFoot  -5.4171 0.178725 -3.97865
RightToes  0.00048216 0.542163 -0.142577
Spine  4.06593 0.65789 1.5331
Spine1  -3.76398 1.07259 -1.68852
HEad  -1.45168 0.415327 -0.391202
LeftShoulder1  0.595882 -1.70646 -3.35148
LeftArm  -25.301 10.0917 -1.02037
LeftForeArm  13.423 -14.178 -1.33864
LeftHand  -0.25398 0.0180481 5.50724
RightShoulder  0.383622 -0.0201954 2.95413
RightArm  -22.5652 -2.04938 -1.3652
RightForeArm  -15.4877 6.25107 4.22705
RightHand  -2.80435 8.75596 -23.1478
LeftUpLeg  1.66231 2.5986 -0.868613
LeftLeg  3.70538 9.99143 -2.7336
LeftFoot  -4.39328 -0.0780102 1.61856
LeftToes  1.06244e-005 4.65856e-005 -8.18505e-006
564
root  8.94296 40.8419 -1.23511 -126.94 -87.8203 124.71
RightUpLeg  0.45818 -7.95172 -3.45009
RightLeg  7.35377 -4.70366 3.55398
RightFoot  -5.43871 0.178964 -4.00812
RightToes  0.00048216 0.542163 -0.142577
Spine  3.62157 0.576388 1.00369
Spine1  -3.77464 0.942058 -1.40252
HEad  -1.17166 0.497212 -0.574152
LeftShoulder1  0.64646 -2.09997 -3.47182
LeftArm  -23.3029 9.60804 -0.95539
LeftForeArm  13.1685 -12.2844 -1.32007
LeftHand  -0.25398 0.0180481 5.50724
RightShoulder  0.408605 0.0688828 3.43157
RightArm  -22.3683 -1.61125 -0.574439
RightForeArm  -12.8413 5.75753 4.0868
RightHand  -2.62257 8.36864 -22.2882
LeftUpLeg  1.53396 2.5176 -0.894968
LeftLeg  3.82177 9.93348 -2.59479
LeftFoot  -4.37657 -0.0711948 1.52496
LeftToes  1.06244e-005 4.65856e-005 -8.18505e-006
565
root  8.93497 40.8413 -1.27536 -122.352 -87.9371 120.144
RightUpLeg  0.519173 -7.94957 -3.39269
RightLeg  7.26835 -4.91922 3.56753
RightFoot  -5.45747 0.178293 -4.0221
RightToes  0.00048216 0.542163 -0.142577
Spine  3.33257 0.43244 0.31752
Spine1  -3.81519 0.727107 -0.941982
HEad  -1.09336 0.656692 -0.630286
LeftShoulder1  0.703437 -2.55873 -3.55548
LeftArm  -21.3217 9.5124 -1.2864
LeftForeArm  11.943 -9.16391 -1.32046
LeftHand  -0.25398 0.0180481 5.50724
RightShoulder  0.468495 0.379184 4.14159
RightArm  -21.7477 -1.64808 0.532679
RightForeArm  -9.44679 5.02406 3.91915
RightHand  -2.34025 7.6147 -21.0836
LeftUpLeg  1.49464 2.57598 -0.807345
LeftLeg  3.854 9.65609 -2.6068
LeftFoot  -4.36046 -0.0652917 1.44537
LeftToes  1.06244e-005 4.65856e-005 -8.18505e-006
